<?xml version="1.0" encoding="UTF-8"?>
<!DOCTYPE svg PUBLIC "-//W3C//DTD SVG 1.1//EN" "http://www.w3.org/Graphics/SVG/1.1/DTD/svg11.dtd">
<!-- Creator: CorelDRAW -->
<svg xmlns="http://www.w3.org/2000/svg" xml:space="preserve" width="145.649" height="41.778" version="1.1" style="shape-rendering:geometricPrecision; text-rendering:geometricPrecision; image-rendering:optimizeQuality; fill-rule:evenodd; clip-rule:evenodd"
viewBox="0 0 14251.2 4087.83"
 xmlns:xlink="http://www.w3.org/1999/xlink"
 xmlns:xodm="http://www.corel.com/coreldraw/odm/2003">
 <defs>
  <style type="text/css">
   <![CDATA[
    .fil0 {fill:#FFED00;fill-rule:nonzero}
    .fil3 {fill:#E31E24;fill-rule:nonzero}
    .fil1 {fill:#0082C9;fill-rule:nonzero}
    .fil2 {fill:#0082C9;fill-rule:nonzero}
   ]]>
  </style>
 </defs>
 <g id="Layer_x0020_1">
  <metadata id="CorelCorpID_0Corel-Layer"/>
  <g id="_2260579796816">
   <path class="fil0" d="M7767.12 1973.28l0 5.1c0,99.06 40.65,189.26 106.11,254.72 65.47,65.48 155.63,106.14 254.67,106.14 99.14,0 189.31,-40.65 254.77,-106.1 65.84,-65.84 106.71,-156.08 106.71,-254.76l-0.57 0 0 -5.1 293.52 0 0 5.1 -0.58 0c-0.03,180.47 -73.39,344.13 -191.55,462.3 -118.51,118.51 -282.12,192.09 -462.23,192.09 -180.15,0 -343.77,-73.61 -462.29,-192.13 -118.5,-118.53 -192.09,-282.17 -192.09,-462.26l0 -10.12 -10.19 0c-180.01,0 -343.67,-73.63 -462.23,-192.19 -118.54,-118.53 -192.16,-282.14 -192.16,-462.23 0,-180.06 73.62,-343.7 192.14,-462.25 118.55,-118.53 282.19,-192.12 462.25,-192.12l12.7 0 0 293.52 -12.7 0c-99.03,0 -189.24,40.66 -254.71,106.13 -65.47,65.48 -106.15,155.66 -106.15,254.71 0,99.04 40.68,189.22 106.16,254.69 65.52,65.51 155.72,106.2 254.7,106.2l12.7 0 0 298.54 291 0z"/>
   <path class="fil1" d="M2981.89 3591.63l0 -66.04 188.54 0 0 542.04 -188.54 0 0 -63.97c-43.59,56.11 -102.88,84.18 -177.5,84.18 -46.19,0 -88.65,-11.79 -127.19,-35.34 -38.52,-23.58 -69.01,-57.43 -91.46,-101.75 -22.45,-44.34 -33.67,-95.76 -33.67,-154.69 0,-48.82 8.98,-95.2 26.94,-139.54 17.77,-44.32 45.82,-80.61 83.8,-108.84 37.96,-28.25 85.1,-42.28 141.58,-42.28 38.53,0 71.82,6.73 100.07,20.39 28.06,13.65 53.86,35.54 77.44,65.84zm-109.98 334.61c22.99,0 43.39,-5.42 61.35,-16.1 17.76,-10.66 31.6,-25.8 41.52,-45.25 9.91,-19.63 14.78,-42.46 14.78,-68.83 0,-26.01 -4.87,-48.63 -14.78,-67.9 -9.91,-19.45 -23.76,-34.42 -41.52,-45.08 -17.95,-10.66 -38.36,-16.1 -61.35,-16.1 -25.64,0 -47.33,6.18 -64.9,18.35 -17.77,12.33 -30.86,28.24 -39.29,48.06 -8.41,19.64 -12.52,40.58 -12.52,62.66 0,22.81 4.3,44.14 12.72,63.78 8.41,19.83 21.5,35.72 39.09,48.06 17.39,12.17 39.09,18.34 64.9,18.34zm1545.41 -400.64l565.61 0 0 542.04 -196.39 0 0 -407.37 -172.83 0 0 407.37 -196.4 0 0 -542.04zm1898.92 542.04l0 -400.64 -141.4 0 0 -141.4 479.37 0 0 141.4 -141.58 0 0 400.64 -196.39 0zm2093.05 -164.97c-41.89,123.44 -139.15,185.17 -291.78,185.17 -56.67,0 -107.91,-11.41 -153.74,-34.05 -45.83,-22.62 -81.74,-55.91 -107.93,-99.87 -25.98,-44.14 -39.08,-96.69 -39.08,-157.86 0,-56.68 11.97,-106.99 36.1,-151.31 24.14,-44.34 58.91,-78.56 103.99,-102.88 45.27,-24.31 98,-36.48 158.24,-36.48 110.91,0 188.35,33.48 232.49,100.45 44.14,66.77 66.2,144.94 66.2,233.97l-412.98 0c0,36.29 10.11,67.15 30.5,92.41 20.38,25.25 49.19,37.77 86.21,37.77 27.12,0 49.76,-5.98 68.27,-17.75 18.52,-11.79 30.13,-28.25 34.79,-49.58l188.72 0zm-404.18 -169.45l220.14 0c-1.86,-30.3 -12.15,-56.29 -31.24,-77.81 -19.07,-21.52 -45.25,-32.17 -78.92,-32.17 -20.95,0 -39.65,5.06 -56.11,14.96 -16.28,9.91 -29,23.38 -38.35,40.22 -9.17,16.82 -14.41,34.96 -15.53,54.79zm1626.39 334.42l0 -542.04 196.4 0 0 221.27 163.84 -221.27 240.34 0 -223.33 254.57 243.35 287.47 -248.02 0 -176.18 -240.33 0 240.33 -196.4 0zm2192.76 -476l0 -66.04 188.53 0 0 542.04 -188.53 0 0 -63.97c-43.59,56.11 -102.89,84.18 -177.51,84.18 -46.18,0 -88.65,-11.79 -127.18,-35.34 -38.52,-23.58 -69.02,-57.43 -91.47,-101.75 -22.44,-44.34 -33.66,-95.76 -33.66,-154.69 0,-48.82 8.97,-95.2 26.93,-139.54 17.78,-44.32 45.82,-80.61 83.8,-108.84 37.97,-28.25 85.11,-42.28 141.58,-42.28 38.54,0 71.82,6.73 100.07,20.39 28.06,13.65 53.86,35.54 77.45,65.84zm-109.98 334.61c22.99,0 43.39,-5.42 61.35,-16.1 17.76,-10.66 31.6,-25.8 41.52,-45.25 9.9,-19.63 14.77,-42.46 14.77,-68.83 0,-26.01 -4.87,-48.63 -14.77,-67.9 -9.91,-19.45 -23.76,-34.42 -41.52,-45.08 -17.95,-10.66 -38.36,-16.1 -61.35,-16.1 -25.64,0 -47.33,6.18 -64.91,18.35 -17.77,12.33 -30.85,28.24 -39.29,48.06 -8.41,19.64 -12.51,40.58 -12.51,62.66 0,22.81 4.29,44.14 12.72,63.78 8.41,19.83 21.5,35.72 39.08,48.06 17.4,12.17 39.09,18.34 64.91,18.34z"/>
   <path class="fil2" d="M8491.34 664.5l0 -10.14c0,-99.05 -40.65,-189.25 -106.11,-254.72 -65.47,-65.47 -155.63,-106.13 -254.67,-106.13 -99.14,0 -189.31,40.65 -254.77,106.09 -65.83,65.84 -106.7,156.08 -106.71,254.76l0.58 0 0 1025.4 1025.39 0c99.04,0 189.24,-40.67 254.71,-106.15 65.47,-65.48 106.15,-155.66 106.15,-254.71 0,-99.03 -40.68,-189.21 -106.16,-254.68 -65.51,-65.52 -155.71,-106.2 -254.7,-106.2l-690.59 0 0 -293.51 386.89 0zm293.52 -10.14l0 10.14 10.18 0c180.02,0 343.68,73.62 462.24,192.18 118.52,118.52 192.15,282.14 192.15,462.22 0,180.06 -73.61,343.71 -192.14,462.25 -118.53,118.54 -282.19,192.13 -462.25,192.13l-1318.91 0 0 -1318.91 0.58 0c0.02,-180.47 73.38,-344.12 191.54,-462.29 118.52,-118.52 282.13,-192.09 462.24,-192.09 180.15,0 343.77,73.61 462.28,192.12 118.51,118.53 192.1,282.18 192.1,462.26z"/>
   <path class="fil3" d="M238.18 1142.25c20.94,-26.17 47.11,-52.35 88.99,-73.29 52.35,-28.79 99.47,-36.64 154.43,-36.64 62.82,0 96.85,15.7 117.79,28.8 18.32,13.08 49.73,41.88 49.73,99.46 0,49.73 -23.55,81.14 -47.11,96.85 -28.79,20.94 -81.13,26.17 -115.17,26.17l-120.4 0 0 219.86 138.73 0c54.96,0 112.54,2.62 154.42,31.41 31.42,20.94 52.36,57.58 52.36,112.55 0,70.66 -34.03,109.93 -65.44,130.87 -47.11,34.03 -109.93,39.27 -162.28,39.27 -60.2,0 -117.79,-5.23 -177.99,-49.74 -18.32,-13.08 -62.82,-49.74 -91.6,-115.17l-214.64 109.93c36.64,65.44 91.61,133.49 154.43,177.98 112.55,81.14 240.8,96.85 340.27,96.85 146.57,0 253.89,-36.64 332.41,-91.61 112.54,-78.52 162.28,-198.92 162.28,-306.24 0,-104.7 -49.74,-170.14 -91.61,-206.78 -44.49,-39.26 -99.46,-62.82 -149.19,-73.29 102.07,-41.88 157.04,-130.87 157.04,-235.57 0,-117.79 -65.44,-191.07 -115.17,-230.34 -86.38,-68.05 -196.31,-81.13 -295.77,-81.13 -96.85,0 -188.46,13.08 -280.07,62.82 -49.74,26.17 -104.71,68.05 -149.2,115.17l172.75 151.81zm1559.37 -298.38l0 458.05c0,123.02 -5.23,219.87 -47.12,306.24 -28.79,57.58 -86.37,141.35 -214.63,151.82l0 570.6 246.03 0 0 -329.8 811.41 0 0 329.8 246.04 0 0 -570.6 -172.76 0 0 -916.11 -868.98 0zm602.01 916.11l-481.61 0c57.58,-44.5 136.1,-141.35 136.1,-355.98l0 -319.33 345.51 0 0 675.31zm1321.18 -916.11l-266.98 0 0 1706.57 266.98 0 0 -683.15c120.4,149.2 290.54,170.14 353.35,170.14 272.22,0 557.52,-238.19 557.52,-617.71 0,-371.68 -259.13,-607.25 -560.14,-607.25 -91.6,0 -240.8,26.17 -350.73,157.04l0 -125.63zm311.47 209.39c162.28,0 321.94,128.26 321.94,369.06 0,206.78 -120.4,374.3 -321.94,374.3 -214.63,0 -327.18,-172.76 -327.18,-369.07 0,-246.03 159.67,-374.29 327.18,-374.29zm2150.91 -209.39l0 136.1c-109.93,-149.2 -261.75,-167.51 -348.12,-167.51 -363.82,0 -562.75,298.38 -562.75,609.86 0,311.47 206.78,615.1 560.13,615.1 198.93,0 303.63,-102.08 350.74,-157.04l0 120.4 266.97 0 0 -1156.91 -266.97 0zm-308.86 209.39c167.52,0 324.57,123.02 324.57,371.68 0,212.01 -120.4,371.68 -324.57,371.68 -206.78,0 -324.56,-172.76 -324.56,-369.07 0,-206.77 128.25,-374.29 324.56,-374.29z"/>
   <path class="fil3" d="M9813.27 843.87l0 1245.9 795.71 -761.68 0 672.68 266.97 0 0 -1261.6 -795.7 761.68 0 -656.98 -266.98 0zm1818.5 1156.91l942.28 0 0 329.8 246.04 0 0 -570.6 -193.7 0 0 -916.11 -266.97 0 0 916.11 -460.67 0 0 -916.11 -266.98 0 0 1156.91zm1661.45 0l314.1 0 316.71 -426.64 60.2 0 0 426.64 266.98 0 0 -1156.91 -431.87 0c-120.41,0 -240.81,13.08 -337.66,104.7 -91.6,86.38 -104.7,191.07 -104.7,266.97 0,54.97 10.47,162.29 96.85,243.42 52.35,47.12 120.4,75.91 183.22,83.77l-363.82 458.05zm691 -646.51l-162.28 0c-75.91,0 -120.4,-7.85 -149.2,-26.17 -23.55,-15.7 -54.96,-47.11 -54.96,-112.55 0,-62.82 31.41,-96.84 60.2,-115.17 39.27,-23.55 88.99,-26.17 141.35,-26.17l164.89 0 0 280.07z"/>
  </g>
 </g>
</svg>
